<mxfile host="app.diagrams.net" modified="2024-05-29T16:24:04.904Z" agent="Mozilla/5.0 (Windows NT 10.0; Win64; x64) AppleWebKit/537.36 (KHTML, like Gecko) Chrome/125.0.0.0 Safari/537.36" etag="gukppy5ADyaiNAvucn7F" version="24.4.8" type="github">
  <diagram name="Page-1" id="F7W0f6xDWh8SOJDWMnaS">
    <mxGraphModel dx="2534" dy="858" grid="1" gridSize="10" guides="1" tooltips="1" connect="1" arrows="1" fold="1" page="1" pageScale="1" pageWidth="1100" pageHeight="850" math="0" shadow="0">
      <root>
        <mxCell id="0" />
        <mxCell id="1" parent="0" />
        <mxCell id="rNBWAqqBrENJBmE4Uvwk-25" value="" style="rounded=0;whiteSpace=wrap;html=1;fillColor=#d5e8d4;strokeColor=#82b366;" vertex="1" parent="1">
          <mxGeometry x="-80" y="240" width="180" height="550" as="geometry" />
        </mxCell>
        <mxCell id="rNBWAqqBrENJBmE4Uvwk-8" style="edgeStyle=orthogonalEdgeStyle;rounded=0;orthogonalLoop=1;jettySize=auto;html=1;exitX=0.5;exitY=1;exitDx=0;exitDy=0;" edge="1" parent="1" source="rNBWAqqBrENJBmE4Uvwk-1">
          <mxGeometry relative="1" as="geometry">
            <mxPoint x="10" y="240" as="targetPoint" />
          </mxGeometry>
        </mxCell>
        <mxCell id="rNBWAqqBrENJBmE4Uvwk-33" style="edgeStyle=orthogonalEdgeStyle;rounded=0;orthogonalLoop=1;jettySize=auto;html=1;exitX=0.5;exitY=1;exitDx=0;exitDy=0;entryX=0.5;entryY=0;entryDx=0;entryDy=0;" edge="1" parent="1" source="rNBWAqqBrENJBmE4Uvwk-1" target="rNBWAqqBrENJBmE4Uvwk-26">
          <mxGeometry relative="1" as="geometry" />
        </mxCell>
        <mxCell id="rNBWAqqBrENJBmE4Uvwk-1" value="CHAPTER 3&lt;div style=&quot;font-size: 25px;&quot;&gt;MAKING A STORY STICKY&lt;/div&gt;" style="rounded=0;whiteSpace=wrap;html=1;fillColor=#fff2cc;fontSize=25;strokeColor=#d6b656;fontStyle=1;gradientColor=#ffd966;fontColor=#666600;" vertex="1" parent="1">
          <mxGeometry x="320" y="50" width="360" height="120" as="geometry" />
        </mxCell>
        <mxCell id="rNBWAqqBrENJBmE4Uvwk-7" value="SIMPLE" style="rounded=0;whiteSpace=wrap;html=1;fillColor=#60a917;strokeColor=#2D7600;fontSize=25;fontColor=#ffffff;" vertex="1" parent="1">
          <mxGeometry x="-60" y="260" width="140" height="60" as="geometry" />
        </mxCell>
        <mxCell id="rNBWAqqBrENJBmE4Uvwk-21" value="ideas that&amp;nbsp;&lt;div&gt;stick&lt;/div&gt;" style="rounded=0;whiteSpace=wrap;html=1;fillColor=#f5f5f5;strokeColor=#666666;fontSize=20;fontColor=#333333;" vertex="1" parent="1">
          <mxGeometry x="-60" y="365" width="140" height="60" as="geometry" />
        </mxCell>
        <mxCell id="rNBWAqqBrENJBmE4Uvwk-22" value="not simplistic" style="rounded=0;whiteSpace=wrap;html=1;fillColor=#f5f5f5;strokeColor=#666666;fontSize=20;fontColor=#333333;" vertex="1" parent="1">
          <mxGeometry x="-60" y="450" width="140" height="60" as="geometry" />
        </mxCell>
        <mxCell id="rNBWAqqBrENJBmE4Uvwk-23" value="picture, model or algorithm" style="rounded=0;whiteSpace=wrap;html=1;fillColor=#f5f5f5;strokeColor=#666666;fontSize=20;fontColor=#333333;" vertex="1" parent="1">
          <mxGeometry x="-60" y="540" width="140" height="60" as="geometry" />
        </mxCell>
        <mxCell id="rNBWAqqBrENJBmE4Uvwk-24" value="language" style="rounded=0;whiteSpace=wrap;html=1;fillColor=#f5f5f5;strokeColor=#666666;fontSize=20;fontColor=#333333;" vertex="1" parent="1">
          <mxGeometry x="-60" y="630" width="140" height="60" as="geometry" />
        </mxCell>
        <mxCell id="rNBWAqqBrENJBmE4Uvwk-26" value="" style="rounded=0;whiteSpace=wrap;html=1;fillColor=#dae8fc;strokeColor=#6c8ebf;" vertex="1" parent="1">
          <mxGeometry x="130" y="240" width="220" height="550" as="geometry" />
        </mxCell>
        <mxCell id="rNBWAqqBrENJBmE4Uvwk-27" value="UNEXPECTED" style="rounded=0;whiteSpace=wrap;html=1;fillColor=#0050ef;strokeColor=#001DBC;fontSize=25;fontColor=#ffffff;" vertex="1" parent="1">
          <mxGeometry x="145" y="260" width="190" height="60" as="geometry" />
        </mxCell>
        <mxCell id="rNBWAqqBrENJBmE4Uvwk-28" value="novelty" style="rounded=0;whiteSpace=wrap;html=1;fillColor=#f5f5f5;strokeColor=#666666;fontSize=20;fontColor=#333333;" vertex="1" parent="1">
          <mxGeometry x="147.5" y="365" width="185" height="60" as="geometry" />
        </mxCell>
        <mxCell id="rNBWAqqBrENJBmE4Uvwk-29" value="knowledge gap" style="rounded=0;whiteSpace=wrap;html=1;fillColor=#f5f5f5;strokeColor=#666666;fontSize=20;fontColor=#333333;" vertex="1" parent="1">
          <mxGeometry x="150" y="450" width="180" height="60" as="geometry" />
        </mxCell>
        <mxCell id="rNBWAqqBrENJBmE4Uvwk-30" value="curiosity" style="rounded=0;whiteSpace=wrap;html=1;fillColor=#f5f5f5;strokeColor=#666666;fontSize=20;fontColor=#333333;" vertex="1" parent="1">
          <mxGeometry x="155" y="540" width="180" height="60" as="geometry" />
        </mxCell>
        <mxCell id="rNBWAqqBrENJBmE4Uvwk-31" value="window of knowledge" style="rounded=0;whiteSpace=wrap;html=1;fillColor=#f5f5f5;strokeColor=#666666;fontSize=20;fontColor=#333333;" vertex="1" parent="1">
          <mxGeometry x="152.5" y="630" width="180" height="60" as="geometry" />
        </mxCell>
        <mxCell id="rNBWAqqBrENJBmE4Uvwk-34" value="start simple and work on it" style="rounded=0;whiteSpace=wrap;html=1;fillColor=#f5f5f5;strokeColor=#666666;fontSize=20;fontColor=#333333;" vertex="1" parent="1">
          <mxGeometry x="-60" y="710" width="140" height="60" as="geometry" />
        </mxCell>
        <mxCell id="rNBWAqqBrENJBmE4Uvwk-35" value="don&#39;t show off what you know" style="rounded=0;whiteSpace=wrap;html=1;fillColor=#f5f5f5;strokeColor=#666666;fontSize=20;fontColor=#333333;" vertex="1" parent="1">
          <mxGeometry x="155" y="710" width="175" height="60" as="geometry" />
        </mxCell>
      </root>
    </mxGraphModel>
  </diagram>
</mxfile>
